<svg width="196" height="19" viewBox="0 0 196 19" fill="none" xmlns="http://www.w3.org/2000/svg">
<path d="M2 0.5C1.17157 0.5 0.5 1.17157 0.5 2C0.5 2.82843 1.17157 3.5 2 3.5V0.5ZM194 2L194.737 3.30673C195.33 2.97196 195.624 2.27874 195.451 1.61927C195.278 0.959805 194.682 0.5 194 0.5V2ZM165.763 16.1933C165.042 16.6 164.786 17.5148 165.193 18.2365C165.6 18.9582 166.515 19.2135 167.237 18.8067L165.763 16.1933ZM2 3.5H194V0.5H2V3.5ZM193.263 0.693272L165.763 16.1933L167.237 18.8067L194.737 3.30673L193.263 0.693272Z" fill="#242424"/>
</svg>
